# xmcd
#
# Track frame offsets: 
#        150
#        12807
#        30151
#        46094
#        60597
#        77039
#        89842
#        113755
#        131814
#        143480
#        157597
#
# Disc length: 2286 seconds
#
# Revision: 0
# Processed by: cddbd v1.5.2PL0 Copyright (c) Steve Scherf et al.
# Submitted via: ExactAudioCopy v0.99pb5
#
DISCID=7908ec0b
DTITLE=Back Porch - Ain't Letting Go
DYEAR=2010
DGENRE=Blues
TTITLE0=Lazy
TTITLE1=Steam Train
TTITLE2=She's Gone
TTITLE3=Pass Me By
TTITLE4=5:4 Starts
TTITLE5=T.W.
TTITLE6=Six Page Letter
TTITLE7=Beer Shack
TTITLE8=Daytime Blues
TTITLE9=I'm a Good Man (but I've done some bad things)
TTITLE10=Ain't Letting Go
EXTD=
EXTT0=
EXTT1=
EXTT2=
EXTT3=
EXTT4=
EXTT5=
EXTT6=
EXTT7=
EXTT8=
EXTT9=
EXTT10=
PLAYORDER=
